<svg version="1" xmlns="http://www.w3.org/2000/svg" width="880" height="880" viewBox="0 0 660.000000 660.000000"><path d="M328.6 3.4c-.9 1.4-1.6 3-1.6 3.6 0 .5-.4 1-1 1-.5 0-1.2 1.1-1.6 2.5-.3 1.4-1 2.5-1.5 2.5s-.9.5-.9 1c0 .6-1.8 4-4 7.6-2.2 3.6-4 7-4 7.5s-.4.9-.8.9-1.3 1.2-1.9 2.7c-.7 1.6-2.3 4.6-3.7 6.8-1.4 2.2-2.9 4.7-3.3 5.5-.4.8-3.3 5.9-6.5 11.3S292 66.6 292 67.1s-.4.9-.8.9-1.3 1.2-1.9 2.7c-.7 1.6-2.3 4.6-3.7 6.8-1.4 2.2-2.9 4.7-3.3 5.4-.4.8-6.5 11.4-13.6 23.5-14.5 24.9-17.4 29.8-19.7 34.1-1.5 2.8-13.9 24.1-16 27.5-.5.8-4.2 7.2-8.2 14.1l-7.2 12.7-2-3.2c-7.8-12.4-24.6-41-24.6-41.7 0-.5-.4-.9-1-.9-.5 0-1-.5-1-1.1 0-.6-1.3-3.1-3-5.6-1.6-2.4-3-4.6-3-4.9 0-.2-2.2-4.1-5-8.5-2.7-4.4-5-8.3-5-8.5 0-.3-1.3-2.5-3-4.9-1.6-2.4-3-4.8-3-5.4 0-.6-.5-1.1-1.2-1.1-.6 0-.9-.3-.5-.6.3-.4-.5-2.1-1.8-3.9-1.4-1.7-2.5-3.7-2.5-4.2 0-3.3-2.2-3.4-78.2-3.4-41.4 0-77.1 0-79.2.1-3.7 0-3.8.1-2.3 1.8 1 1 1.7 2.2 1.7 2.6 0 .4 4.1 7.6 9.2 15.9 5 8.4 9.6 16.1 10.2 17.2.6 1.1 1.9 3.1 2.7 4.5 1.3 1.9 13.6 22.5 26.4 44.2 5 8.5 9.1 15.5 9.4 16.3.2.5.7 1.2 1.1 1.5.3.3 2.8 4.3 5.5 9 2.6 4.7 5.2 8.8 5.7 9.1.6.3 1 1 1 1.5.1.5.6 1.8 1.3 2.9 5.2 8.2 29.6 49.6 30.6 51.8.7 1.5 1.5 2.7 1.9 2.7.4 0 1 .8 1.4 1.7.3 1 1.1 2.7 1.8 3.8 4.3 6.6 7.8 12.7 7.8 13.5 0 .6.5 1 1 1 .6 0 1 .4 1 .9 0 .6 6.8 12.2 15 26 8.3 13.8 15 25.5 15 26.1 0 .5.4 1 1 1 .5 0 1.2 1.1 1.6 2.5.3 1.4 1 2.5 1.5 2.5s.9.7.9 1.6c0 2.3 2.1 1.2 3.9-2.2.9-1.6 2.9-4.8 4.4-7.2 1.6-2.4 3.7-5.9 4.8-7.8 1-1.9 3.8-6.6 6.2-10.4 2.3-3.9 4.7-7.8 5.2-8.8.6-.9 4.2-7 8-13.5 3.9-6.5 7.7-13 8.6-14.5 5.5-9.3 17.4-29 18.4-30.5 1.3-1.9 1.5-1.7 7.5 8.8 2.3 4.1 12.1 20.9 14.4 24.8 1 1.8 5.7 9.8 10.3 17.9l8.5 14.7-9.7 16.8c-5.4 9.2-10.8 18.7-12.2 21-1.3 2.4-7.5 13.1-13.8 23.9-6.3 10.8-11.5 19.8-11.5 19.9 0 .1-2.5 4.4-5.5 9.4-3 5.1-5.5 9.5-5.5 10 0 .7 21.5 38.2 36.1 62.9 2.7 4.5 4.9 8.5 4.9 8.8 0 .3.8 1.8 1.9 3.2 1 1.5 2.7 4.3 3.8 6.2 8.1 14.5 18.8 32.8 20 34.1.7.8 1.3 2.3 1.3 3.1 0 .9.4 1.8.8 2 .6.2 10.3 16.4 18.1 30 1.1 2.1 3 5.3 4 7.2 1.1 1.9 3.1 5.2 4.4 7.3 2.2 3.6 4.7 7.8 10.5 18.3 1.3 2.5 3 5.2 3.6 6 .7.8 1.7 2.6 2.4 4s1.6 3.2 2.2 4c1 1.6 7.1 12 13.5 23.2 2.2 3.8 4.3 6.8 4.7 6.8.5 0 1.4-1.2 2-2.8.7-1.5 2.6-5 4.4-7.7 1.7-2.8 6.2-10.4 10-17s7.4-12.7 7.9-13.6c.6-.9 1.9-3.2 2.9-5 1-1.9 8.2-14.2 15.9-27.4 7.7-13.2 14.9-25.6 15.9-27.5 1.9-3.2 9.9-17.1 12.3-21.2C409 523 412 517.6 412 516.9c0-.5.3-.9.8-.9.4 0 1.2-1 1.8-2.3 1.7-3.7 5.9-11.2 6.5-11.7.3-.3 1.6-2.5 3-5 1.3-2.5 2.7-4.6 3.2-4.8.4-.2.7-.7.7-1.2 0-.6 7.1-13.3 10.1-18 1.8-2.9 21.2-36.5 22.7-39.3 1.4-2.9 1.2-4.3-1.8-8.7-1.4-2.1-10-16.9-16.5-28.5-1.3-2.2-8.9-15.2-16.9-28.9-8-13.7-14.6-25.3-14.6-25.8 0-.4-.5-.8-1.1-.8-.5 0-.8-.4-.5-.9.3-.5 0-1.4-.8-2-.7-.6-2.1-2.8-3-4.9l-1.7-3.8 6.1-10.5c3.3-5.7 6.5-11.1 7-11.9.5-.8 2.8-4.9 5.2-9 2.3-4.1 4.5-7.7 5-7.8.4-.2.8-.7.8-1.2s3.4-6.8 7.7-14l7.6-13.2 1.8 2.3c1 1.3 1.9 2.8 1.9 3.2 0 .5 1.5 3.2 3.3 6 3.5 5.7 3.6 5.9 10 16.7 7.7 13.1 16.9 28.4 19.2 32 1.3 1.9 3.3 5.5 4.6 8 1.3 2.5 2.6 4.7 2.9 5 1.4 1.4 14 23 14 24 0 2.8 2.8-.3 7.7-8.5 2.9-4.8 5.3-9.2 5.3-9.6 0-.5.5-.9 1-.9.6 0 1-.4 1-.8 0-.5 2.4-4.8 5.3-9.6 2.8-4.8 5.7-9.4 6.2-10.4.6-.9 4.2-7 8-13.5 3.9-6.5 7.7-13 8.6-14.5.9-1.5 8-13.3 15.7-26.3 7.8-13.1 14.7-24.9 15.3-26.3.7-1.4 1.5-2.6 1.9-2.6.4 0 1-.8 1.4-1.8.3-.9 1.7-3.5 3.1-5.7 1.4-2.2 3.4-5.6 4.5-7.5 2.4-4 1.8-3 20.2-34 7.7-12.9 14.8-24.6 15.6-26 .9-1.4 1.7-2.7 1.7-3 0-.3.8-1.6 1.7-3 4.2-6.4 24.8-41.4 24.8-42.1 0-.5.5-.9 1-.9.6 0 1-.4 1-1 0-.5 1.8-3.9 4-7.5l4-6.5h-5.3c-2.8-.1-38.5-.1-79.2-.1-70.3 0-74.1.1-75.3 1.8-2.8 3.9-14.2 23.5-14.2 24.4 0 .5-.4.9-1 .9-.5 0-1 .4-1 .9s-2.2 4.6-5 9.1c-2.7 4.5-5 8.4-5 8.6 0 .3-.9 1.7-1.9 3.2-1.1 1.5-7.9 12.8-15.2 25.2-7.3 12.4-13.4 22.7-13.6 23-.6.7-3.4-3.2-6.3-8.7-1.3-2.7-2.7-5-3-5.3-.3-.3-1.1-1.6-1.8-3-.6-1.4-1.8-3.4-2.4-4.5-1.8-2.7-5-8.2-8-13.5-1.4-2.5-7.1-12.3-12.7-21.9-5.5-9.5-10.1-17.7-10.1-18.2s-.3-.9-.7-.9c-.5 0-1.3-1-1.9-2.3-2.4-5-7.8-14.3-9-15.8-.8-.8-1.4-1.8-1.4-2.2 0-.3-2-4-4.5-8-2.5-4.1-4.5-8-4.5-8.6 0-.6-.4-1.1-1-1.1-.5 0-1-.4-1-1 0-.5-2-4.2-4.4-8.2C363.6 59 334 8 331.5 3.2L330.3 1l-1.7 2.4zm4.4 74.4c1.1 2 3.1 5.5 4.5 7.7s2.8 4.7 3.2 5.5c.3.8 1.6 3.1 2.8 5 1.2 1.9 3.3 5.5 4.7 8 1.4 2.5 7.1 12.3 12.7 21.9 5.5 9.6 10.1 17.5 10.1 17.7 0 .2 1.4 2.3 3 4.7 1.7 2.5 3 4.7 3 5.1 0 .3 2.5 4.6 5.5 9.6s5.5 9.2 5.5 9.4c0 .2 7.4 13.1 16.5 28.7 13.9 23.8 16.3 28.5 15.2 29.8-.6.9-1.8 2.7-2.6 4.1-3 5.3-12.5 21.6-14.2 24.5-1 1.6-2.9 4.8-4.1 7-1.2 2.2-2.8 4.9-3.5 6-.7 1.1-1.8 3.1-2.5 4.5s-3 5.3-5 8.6c-2.1 3.4-3.8 6.8-3.8 7.5 0 2.4-2.6-1.1-6.2-8.1-.7-1.4-1.5-2.7-1.8-3-.5-.5-1-1.3-10-17-3.4-5.8-6.5-11.2-7-12-1.8-3-17.8-30.6-19.8-34.1-4.1-7.4-4.7-8.4-5.2-8.9-.3-.3-1.1-1.7-1.9-3.3-1.7-3.1-2.9-3.4-3.8-1-.4 1-2.3 4.5-4.3 7.8s-4.8 8-6.2 10.5c-1.4 2.5-8.6 14.9-16 27.6-7.4 12.8-13.8 23.8-14.2 24.5-.3.8-1.6 3-2.8 4.9-1.2 1.9-3.4 5.7-4.8 8.3l-2.7 4.8-4.9-8.3c-2.7-4.5-5.4-9.2-6.1-10.3-.7-1.1-1.5-2.7-1.9-3.5-.4-.8-2.2-3.9-4.1-6.8-1.8-2.9-3.3-5.4-3.3-5.6 0-.5-11.9-20.9-15.3-26.2l-2.6-4.2 3.5-5.7c1.8-3.2 3.4-5.9 3.4-6 0-.1 3-5.4 6.7-11.6 3.6-6.3 9-15.5 11.8-20.4 2.9-5 6.6-11.4 8.3-14.3 1.8-2.9 3.2-5.7 3.2-6.2 0-.6.3-1 .8-1 .4 0 1.5-1.7 2.5-3.8.9-2 3.5-6.6 5.7-10.1 2.2-3.4 4-6.4 4-6.6 0-.2 1.9-3.6 4.3-7.7 2.4-4 5.5-9.3 6.9-11.8 1.4-2.5 8-13.9 14.7-25.3 6.7-11.4 12.7-21.9 13.3-23.2 1.3-2.9 2.2-2.5 4.8 2.3zm-194.5 55.4c1.2 1.2 24.5 41 24.5 41.8 0 .6.5 1 1 1 .6 0 1 .4 1 .9 0 .4 2.5 4.8 5.5 9.7 3 4.9 5.8 9.5 6.2 10.3.3.7 4.5 7.9 9.3 15.9l8.8 14.6-2 3.6c-2.1 3.8-3.8 6.8-5.1 8.4-1 1.4-13.7 22.9-13.7 23.2 0 .1-2.2 3.9-5 8.4-2.7 4.5-5 8.4-5 8.6 0 .3-.5 1-1.1 1.7-.5.7-2.1 3-3.3 5.1l-2.3 3.9-5.9-9.9c-3.2-5.4-6.3-10.7-6.9-11.6-.5-.9-1.7-2.9-2.6-4.5-.9-1.5-5.5-9.2-10.2-17.1-4.8-7.9-8.7-14.7-8.7-15.3 0-.5-.4-.9-.9-.9s-1.1-.8-1.4-1.8c-.4-.9-1.6-3.4-2.9-5.4-4.3-6.8-11.2-18.3-12.6-20.8-.7-1.4-2.1-3.7-3-5.2-4.5-7.2-10.2-17.2-10.2-17.9 0-.5-.4-.9-1-.9-.5 0-1-.4-1-1 0-.5-1.6-3.4-3.5-6.4-1.9-3-3.5-5.7-3.5-6 0-.3-1.3-2.5-3-4.9-1.6-2.5-3-4.8-3-5.2 0-.3-1.3-2.6-3-5-1.6-2.4-3-4.6-3-5 0-.3-1.6-2.9-3.5-5.8-1.9-2.8-3.5-5.5-3.5-5.9 0-.4 3-.8 6.8-1 8.5-.4 67.3 0 67.7.4zm457.2.2c.2.2-2.4 4.8-5.7 10.2-3.3 5.4-6.5 11-7.2 12.4-.7 1.4-1.5 2.7-1.8 3-.4.3-2.6 3.9-4.9 8-2.4 4.1-5.1 8.8-6.1 10.5-.9 1.6-6.3 10.6-11.9 19.8-5.5 9.3-10.1 17.3-10.1 17.8s-.4.9-1 .9c-.5 0-1 .5-1 1 0 .6-1.2 2.9-2.7 5.3-1.5 2.3-3.2 5.1-3.8 6.2-2.7 4.8-36.7 61.5-36.9 61.5-.2 0-2.5-3.7-5.1-8.3-2.7-4.5-5.4-8.9-6.1-9.7-.7-.8-1.2-1.7-1.1-2 0-.3-.6-1.6-1.5-3-5.2-8.1-21.8-36.3-21.8-37 0-.4-.5-1-1.1-1.2-.6-.2 1.7-5.2 5.3-11.3 3.6-6.1 7.1-12.1 7.9-13.4.8-1.4 1.8-3 2.2-3.5 1.1-1.6 21.6-35.8 22.4-37.6.4-.8 2.9-5 5.5-9.3 2.6-4.3 4.8-8.3 4.8-8.8s.5-.9 1-.9c.6 0 1-.4 1-1 0-2.3 5.6-9.9 7.5-10.2 2.9-.4 71.7.1 72.2.6zm-261 149.7c5.1 8.6 8.2 13.9 10.5 17.9.8 1.4 2.4 4.2 3.6 6.2 1.2 2.1 3 5.3 4.1 7 1 1.8 3.5 6.1 5.5 9.5l3.6 6.2-10 17.2c-5.5 9.4-10 17.6-10 18 0 .5-.4.9-1 .9-.5 0-1 .5-1 1 0 .6-1.8 4-4 7.6-2.2 3.6-4 7-4 7.4 0 .4-.7 1.3-1.5 2-1 .8-1.5.9-1.5.1 0-1.1-8.5-16.1-12.1-21.3-1.1-1.5-1.9-2.9-1.9-3.2 0-.3-3.9-7.1-8.6-15.1l-8.5-14.5 4.5-7.6c2.5-4.1 4.8-8.3 5.1-9.4.4-1.1 1.1-2 1.6-2s.9-.4.9-.9c0-.4 2.2-4.6 4.8-9.2 2.7-4.6 5.5-9.5 6.3-10.9.8-1.4 1.6-2.7 1.9-3 .3-.3 1.9-3.1 3.5-6.2 1.7-3.2 3.1-5.8 3.2-5.8.2 0 2.4 3.6 5 8.1zm-41.9 109.7c4.2 7.3 8.2 14.1 8.7 15 .6.9 2.1 3.5 3.3 5.7 1.3 2.2 3.6 6.2 5.3 9 1.6 2.7 3.4 5.9 3.9 7 .6 1.1 2 3.6 3.3 5.6 1.2 2 4.4 7.5 7.1 12.3 2.7 4.7 5.2 8.6 5.5 8.6.7 0 1.6-1.4 5.3-8 1.4-2.5 4.8-8.4 7.7-13.2 2.8-4.8 5.1-9.1 5.1-9.7 0-.6.5-1.1 1-1.1.6 0 1-.4 1-.9s2.4-4.8 5.3-9.7c2.9-4.9 5.6-9.6 6-10.4.5-.8 1.3-2.4 2-3.5s2.8-4.7 4.7-8c1.9-3.3 4-6.9 4.7-8 .7-1.1 1.8-3.1 2.5-4.5 3.1-6 7.1-12 7.9-12 .6 0 1.5 1.2 2.2 2.8.7 1.5 2.8 5.4 4.8 8.7 6.1 10.1 11.7 20 11.8 20.8 0 .4.5 1.3 1.1 2 .6.6 4.8 7.5 9.4 15.2l8.3 14-2.3 4.2c-1.3 2.4-3.6 6.4-5 9-1.5 2.7-3.5 6-4.5 7.5-1.1 1.4-1.9 2.8-1.9 3 0 .3-5.2 9.3-11.5 20.2-6.3 10.8-11.5 20.1-11.5 20.7 0 .5-.4.9-.9.9s-1.1.8-1.4 1.7c-.8 2.4-4 7.6-5.2 8.5-.5.4-.7.8-.2.8.6 0-1.9 4.6-3.3 6-.3.3-1.5 2.3-2.7 4.5-3.4 6.4-32.1 55.9-33 57-.4.6-1.9 3-3.2 5.5-2.8 5.3-5.1 8.1-5.1 6.2 0-.7-1.6-3.8-3.5-6.8s-3.5-5.6-3.5-5.8c0-.2-4.3-7.7-9.6-16.7s-10.6-18.2-11.9-20.4c-3.9-6.9-19.5-33.9-20.4-35.5-1.4-2.1-16.9-28.8-19.3-33-1.1-1.9-3.5-6-5.4-9.1-1.9-3.1-3.4-6.2-3.4-6.8 0-.6-.4-1.1-1-1.1-.5 0-1-.4-1-1 0-.5-2.4-4.9-5.4-9.8l-5.4-8.9 2.5-4.4c1.4-2.4 3.3-5.8 4.3-7.4 1-1.7 3.9-6.8 6.6-11.5 2.6-4.7 5.1-8.7 5.6-8.8.4-.2.8-.8.8-1.3 0-.9 8-15 16.2-28.7l2-3.3 4 6.8c2.2 3.7 7.4 12.8 11.6 20.1z"/></svg>